<mxfile host="65bd71144e">
    <diagram id="4SCtP6zsr1ucXJ-GWTf1" name="Page-1">
        <mxGraphModel dx="875" dy="584" grid="1" gridSize="10" guides="1" tooltips="1" connect="1" arrows="1" fold="1" page="1" pageScale="1" pageWidth="10000" pageHeight="10000" math="0" shadow="0">
            <root>
                <mxCell id="0"/>
                <mxCell id="1" parent="0"/>
                <mxCell id="2" value="&lt;font style=&quot;font-size: 18px;&quot;&gt;对于函数组件，Fiber的memorizedState&lt;/font&gt;" style="text;html=1;align=center;verticalAlign=middle;resizable=0;points=[];autosize=1;strokeColor=none;fillColor=none;" vertex="1" parent="1">
                    <mxGeometry x="1880" y="1810" width="340" height="40" as="geometry"/>
                </mxCell>
                <mxCell id="3" value="" style="endArrow=classic;html=1;" edge="1" parent="1">
                    <mxGeometry width="50" height="50" relative="1" as="geometry">
                        <mxPoint x="2240" y="1829.33" as="sourcePoint"/>
                        <mxPoint x="2330" y="1829.33" as="targetPoint"/>
                    </mxGeometry>
                </mxCell>
                <mxCell id="4" style="edgeStyle=none;html=1;exitX=1;exitY=0.5;exitDx=0;exitDy=0;entryX=0;entryY=0.5;entryDx=0;entryDy=0;" edge="1" parent="1" source="5" target="7">
                    <mxGeometry relative="1" as="geometry"/>
                </mxCell>
                <mxCell id="5" value="useEffect" style="rounded=0;whiteSpace=wrap;html=1;" vertex="1" parent="1">
                    <mxGeometry x="2391" y="1810" width="110" height="40" as="geometry"/>
                </mxCell>
                <mxCell id="6" style="edgeStyle=none;html=1;exitX=1;exitY=0.5;exitDx=0;exitDy=0;" edge="1" parent="1" source="7" target="8">
                    <mxGeometry relative="1" as="geometry">
                        <Array as="points">
                            <mxPoint x="3060" y="1830"/>
                        </Array>
                    </mxGeometry>
                </mxCell>
                <mxCell id="7" value="useState" style="rounded=0;whiteSpace=wrap;html=1;" vertex="1" parent="1">
                    <mxGeometry x="2800" y="1810" width="110" height="40" as="geometry"/>
                </mxCell>
                <mxCell id="8" value="useEffect" style="rounded=0;whiteSpace=wrap;html=1;" vertex="1" parent="1">
                    <mxGeometry x="3210" y="1810" width="110" height="40" as="geometry"/>
                </mxCell>
                <mxCell id="9" value="useEffect" style="rounded=0;whiteSpace=wrap;html=1;" vertex="1" parent="1">
                    <mxGeometry x="2396.5" y="2050" width="109" height="40" as="geometry"/>
                </mxCell>
                <mxCell id="10" value="" style="rounded=0;whiteSpace=wrap;html=1;" vertex="1" parent="1">
                    <mxGeometry x="2391" y="1910" width="120" height="190" as="geometry"/>
                </mxCell>
                <mxCell id="11" value="updateQueue" style="rounded=0;whiteSpace=wrap;html=1;" vertex="1" parent="1">
                    <mxGeometry x="2399.5" y="2055" width="103" height="30" as="geometry"/>
                </mxCell>
                <mxCell id="12" style="edgeStyle=none;html=1;exitX=1;exitY=0.5;exitDx=0;exitDy=0;entryX=0;entryY=0.5;entryDx=0;entryDy=0;" edge="1" parent="1" source="13" target="20">
                    <mxGeometry relative="1" as="geometry"/>
                </mxCell>
                <mxCell id="13" value="next" style="rounded=0;whiteSpace=wrap;html=1;" vertex="1" parent="1">
                    <mxGeometry x="2399.5" y="2000" width="103" height="30" as="geometry"/>
                </mxCell>
                <mxCell id="14" style="edgeStyle=none;html=1;exitX=1;exitY=0.5;exitDx=0;exitDy=0;" edge="1" parent="1" source="15" target="28">
                    <mxGeometry relative="1" as="geometry"/>
                </mxCell>
                <mxCell id="15" value="memorizedState" style="rounded=0;whiteSpace=wrap;html=1;" vertex="1" parent="1">
                    <mxGeometry x="2399.5" y="1940" width="103" height="30" as="geometry"/>
                </mxCell>
                <mxCell id="16" value="useEffect" style="rounded=0;whiteSpace=wrap;html=1;" vertex="1" parent="1">
                    <mxGeometry x="2805.5" y="2050" width="109" height="40" as="geometry"/>
                </mxCell>
                <mxCell id="17" value="" style="rounded=0;whiteSpace=wrap;html=1;" vertex="1" parent="1">
                    <mxGeometry x="2800" y="1910" width="120" height="190" as="geometry"/>
                </mxCell>
                <mxCell id="18" value="updateQueue" style="rounded=0;whiteSpace=wrap;html=1;" vertex="1" parent="1">
                    <mxGeometry x="2808.5" y="2055" width="103" height="30" as="geometry"/>
                </mxCell>
                <mxCell id="19" style="edgeStyle=none;html=1;exitX=1;exitY=0.5;exitDx=0;exitDy=0;" edge="1" parent="1" source="20" target="25">
                    <mxGeometry relative="1" as="geometry"/>
                </mxCell>
                <mxCell id="20" value="next" style="rounded=0;whiteSpace=wrap;html=1;" vertex="1" parent="1">
                    <mxGeometry x="2808.5" y="2000" width="103" height="30" as="geometry"/>
                </mxCell>
                <mxCell id="21" value="memorizedState" style="rounded=0;whiteSpace=wrap;html=1;" vertex="1" parent="1">
                    <mxGeometry x="2807" y="1940" width="103" height="30" as="geometry"/>
                </mxCell>
                <mxCell id="22" value="useEffect" style="rounded=0;whiteSpace=wrap;html=1;" vertex="1" parent="1">
                    <mxGeometry x="3210.5" y="2050" width="109" height="40" as="geometry"/>
                </mxCell>
                <mxCell id="23" value="" style="rounded=0;whiteSpace=wrap;html=1;" vertex="1" parent="1">
                    <mxGeometry x="3205" y="1910" width="120" height="190" as="geometry"/>
                </mxCell>
                <mxCell id="24" value="updateQueue" style="rounded=0;whiteSpace=wrap;html=1;" vertex="1" parent="1">
                    <mxGeometry x="3213.5" y="2055" width="103" height="30" as="geometry"/>
                </mxCell>
                <mxCell id="25" value="next" style="rounded=0;whiteSpace=wrap;html=1;" vertex="1" parent="1">
                    <mxGeometry x="3213.5" y="2000" width="103" height="30" as="geometry"/>
                </mxCell>
                <mxCell id="26" value="memorizedState" style="rounded=0;whiteSpace=wrap;html=1;" vertex="1" parent="1">
                    <mxGeometry x="3213.5" y="1940" width="103" height="30" as="geometry"/>
                </mxCell>
                <mxCell id="27" value="hook数据结构是一个单向链表，&lt;span style=&quot;color: rgb(0, 0, 0); text-wrap-mode: wrap;&quot;&gt;memorizedState&lt;/span&gt;&lt;div&gt;&lt;span style=&quot;color: rgb(0, 0, 0); text-wrap-mode: wrap;&quot;&gt;里面是hook的状态，比如useState就是对应state，useEffect&lt;/span&gt;&lt;/div&gt;&lt;div&gt;&lt;span style=&quot;color: rgb(0, 0, 0); text-wrap-mode: wrap;&quot;&gt;对应的就是useEffect的数据结构&lt;/span&gt;&lt;/div&gt;" style="text;html=1;align=center;verticalAlign=middle;resizable=0;points=[];autosize=1;strokeColor=none;fillColor=none;" vertex="1" parent="1">
                    <mxGeometry x="2010" y="1935" width="340" height="60" as="geometry"/>
                </mxCell>
                <mxCell id="28" value="" style="rounded=0;whiteSpace=wrap;html=1;" vertex="1" parent="1">
                    <mxGeometry x="2535" y="1860" width="103" height="140" as="geometry"/>
                </mxCell>
                <mxCell id="29" value="create" style="rounded=0;whiteSpace=wrap;html=1;" vertex="1" parent="1">
                    <mxGeometry x="2551.5" y="1870" width="70" height="25" as="geometry"/>
                </mxCell>
                <mxCell id="30" value="distory" style="rounded=0;whiteSpace=wrap;html=1;" vertex="1" parent="1">
                    <mxGeometry x="2551.5" y="1900" width="70" height="25" as="geometry"/>
                </mxCell>
                <mxCell id="31" value="deps" style="rounded=0;whiteSpace=wrap;html=1;" vertex="1" parent="1">
                    <mxGeometry x="2551.5" y="1935" width="70" height="25" as="geometry"/>
                </mxCell>
                <mxCell id="32" value="next" style="rounded=0;whiteSpace=wrap;html=1;" vertex="1" parent="1">
                    <mxGeometry x="2551.5" y="1970" width="70" height="25" as="geometry"/>
                </mxCell>
                <mxCell id="33" value="" style="rounded=0;whiteSpace=wrap;html=1;" vertex="1" parent="1">
                    <mxGeometry x="3360" y="1855" width="103" height="140" as="geometry"/>
                </mxCell>
                <mxCell id="34" value="create" style="rounded=0;whiteSpace=wrap;html=1;" vertex="1" parent="1">
                    <mxGeometry x="3376.5" y="1865" width="70" height="25" as="geometry"/>
                </mxCell>
                <mxCell id="35" value="distory" style="rounded=0;whiteSpace=wrap;html=1;" vertex="1" parent="1">
                    <mxGeometry x="3376.5" y="1895" width="70" height="25" as="geometry"/>
                </mxCell>
                <mxCell id="36" value="deps" style="rounded=0;whiteSpace=wrap;html=1;" vertex="1" parent="1">
                    <mxGeometry x="3376.5" y="1935" width="70" height="20" as="geometry"/>
                </mxCell>
                <mxCell id="37" style="edgeStyle=none;html=1;exitX=1;exitY=0.5;exitDx=0;exitDy=0;entryX=0.5;entryY=0;entryDx=0;entryDy=0;" edge="1" parent="1" source="38" target="28">
                    <mxGeometry relative="1" as="geometry">
                        <mxPoint x="3460" y="1961.25" as="sourcePoint"/>
                        <mxPoint x="3010" y="1855" as="targetPoint"/>
                        <Array as="points">
                            <mxPoint x="3520" y="1978"/>
                            <mxPoint x="3520" y="1765"/>
                            <mxPoint x="3010" y="1765"/>
                            <mxPoint x="2587" y="1760"/>
                        </Array>
                    </mxGeometry>
                </mxCell>
                <mxCell id="38" value="next" style="rounded=0;whiteSpace=wrap;html=1;" vertex="1" parent="1">
                    <mxGeometry x="3376.5" y="1965" width="70" height="25" as="geometry"/>
                </mxCell>
                <mxCell id="39" style="edgeStyle=none;html=1;exitX=1;exitY=0.5;exitDx=0;exitDy=0;entryX=0.066;entryY=0.885;entryDx=0;entryDy=0;entryPerimeter=0;" edge="1" parent="1" source="32" target="33">
                    <mxGeometry relative="1" as="geometry"/>
                </mxCell>
                <mxCell id="40" style="edgeStyle=none;html=1;exitX=1;exitY=0.5;exitDx=0;exitDy=0;" edge="1" parent="1" source="26">
                    <mxGeometry relative="1" as="geometry">
                        <mxPoint x="3360" y="1950" as="targetPoint"/>
                    </mxGeometry>
                </mxCell>
                <mxCell id="41" value="0" style="text;html=1;align=center;verticalAlign=middle;resizable=0;points=[];autosize=1;strokeColor=none;fillColor=none;" vertex="1" parent="1">
                    <mxGeometry x="2925" y="1938" width="30" height="30" as="geometry"/>
                </mxCell>
            </root>
        </mxGraphModel>
    </diagram>
</mxfile>